<svg width="106" height="56" viewBox="0 0 106 56" fill="none" xmlns="http://www.w3.org/2000/svg">
<path d="M1.992 38V21.2H5.88V38H1.992ZM17.551 24.896C18.575 24.896 19.487 25.104 20.287 25.52C21.103 25.92 21.743 26.544 22.207 27.392C22.671 28.224 22.903 29.296 22.903 30.608V38H19.159V31.184C19.159 30.144 18.927 29.376 18.463 28.88C18.015 28.384 17.375 28.136 16.543 28.136C15.951 28.136 15.415 28.264 14.935 28.52C14.471 28.76 14.103 29.136 13.831 29.648C13.575 30.16 13.447 30.816 13.447 31.616V38H9.703V25.088H13.279V28.664L12.607 27.584C13.071 26.72 13.735 26.056 14.599 25.592C15.463 25.128 16.447 24.896 17.551 24.896ZM32.0345 38.192C30.8185 38.192 29.7225 37.92 28.7465 37.376C27.7705 36.816 26.9945 36.04 26.4185 35.048C25.8585 34.056 25.5785 32.888 25.5785 31.544C25.5785 30.184 25.8585 29.008 26.4185 28.016C26.9945 27.024 27.7705 26.256 28.7465 25.712C29.7225 25.168 30.8185 24.896 32.0345 24.896C33.1225 24.896 34.0745 25.136 34.8905 25.616C35.7065 26.096 36.3385 26.824 36.7865 27.8C37.2345 28.776 37.4585 30.024 37.4585 31.544C37.4585 33.048 37.2425 34.296 36.8105 35.288C36.3785 36.264 35.7545 36.992 34.9385 37.472C34.1385 37.952 33.1705 38.192 32.0345 38.192ZM32.6825 35.12C33.2905 35.12 33.8425 34.976 34.3385 34.688C34.8345 34.4 35.2265 33.992 35.5145 33.464C35.8185 32.92 35.9705 32.28 35.9705 31.544C35.9705 30.792 35.8185 30.152 35.5145 29.624C35.2265 29.096 34.8345 28.688 34.3385 28.4C33.8425 28.112 33.2905 27.968 32.6825 27.968C32.0585 27.968 31.4985 28.112 31.0025 28.4C30.5065 28.688 30.1065 29.096 29.8025 29.624C29.5145 30.152 29.3705 30.792 29.3705 31.544C29.3705 32.28 29.5145 32.92 29.8025 33.464C30.1065 33.992 30.5065 34.4 31.0025 34.688C31.4985 34.976 32.0585 35.12 32.6825 35.12ZM36.0665 38V35.36L36.1385 31.52L35.8985 27.704V20.192H39.6425V38H36.0665ZM43.2077 38V25.088H46.9517V38H43.2077ZM45.0797 23.288C44.3917 23.288 43.8317 23.088 43.3997 22.688C42.9677 22.288 42.7517 21.792 42.7517 21.2C42.7517 20.608 42.9677 20.112 43.3997 19.712C43.8317 19.312 44.3917 19.112 45.0797 19.112C45.7677 19.112 46.3277 19.304 46.7597 19.688C47.1917 20.056 47.4077 20.536 47.4077 21.128C47.4077 21.752 47.1917 22.272 46.7597 22.688C46.3437 23.088 45.7837 23.288 45.0797 23.288ZM56.7664 38.192C55.3744 38.192 54.1344 37.912 53.0464 37.352C51.9584 36.776 51.1024 35.984 50.4784 34.976C49.8704 33.968 49.5664 32.824 49.5664 31.544C49.5664 30.248 49.8704 29.104 50.4784 28.112C51.1024 27.104 51.9584 26.32 53.0464 25.76C54.1344 25.184 55.3744 24.896 56.7664 24.896C58.1264 24.896 59.3104 25.184 60.3184 25.76C61.3264 26.32 62.0704 27.128 62.5504 28.184L59.6464 29.744C59.3104 29.136 58.8864 28.688 58.3744 28.4C57.8784 28.112 57.3344 27.968 56.7424 27.968C56.1024 27.968 55.5264 28.112 55.0144 28.4C54.5024 28.688 54.0944 29.096 53.7904 29.624C53.5024 30.152 53.3584 30.792 53.3584 31.544C53.3584 32.296 53.5024 32.936 53.7904 33.464C54.0944 33.992 54.5024 34.4 55.0144 34.688C55.5264 34.976 56.1024 35.12 56.7424 35.12C57.3344 35.12 57.8784 34.984 58.3744 34.712C58.8864 34.424 59.3104 33.968 59.6464 33.344L62.5504 34.928C62.0704 35.968 61.3264 36.776 60.3184 37.352C59.3104 37.912 58.1264 38.192 56.7664 38.192ZM70.7861 38.192C69.4101 38.192 68.1861 37.904 67.1141 37.328C66.0581 36.752 65.2181 35.968 64.5941 34.976C63.9861 33.968 63.6821 32.824 63.6821 31.544C63.6821 30.248 63.9861 29.104 64.5941 28.112C65.2181 27.104 66.0581 26.32 67.1141 25.76C68.1861 25.184 69.4101 24.896 70.7861 24.896C72.1461 24.896 73.3621 25.184 74.4341 25.76C75.5061 26.32 76.3461 27.096 76.9541 28.088C77.5621 29.08 77.8661 30.232 77.8661 31.544C77.8661 32.824 77.5621 33.968 76.9541 34.976C76.3461 35.968 75.5061 36.752 74.4341 37.328C73.3621 37.904 72.1461 38.192 70.7861 38.192ZM70.7861 35.12C71.4101 35.12 71.9701 34.976 72.4661 34.688C72.9621 34.4 73.3541 33.992 73.6421 33.464C73.9301 32.92 74.0741 32.28 74.0741 31.544C74.0741 30.792 73.9301 30.152 73.6421 29.624C73.3541 29.096 72.9621 28.688 72.4661 28.4C71.9701 28.112 71.4101 27.968 70.7861 27.968C70.1621 27.968 69.6021 28.112 69.1061 28.4C68.6101 28.688 68.2101 29.096 67.9061 29.624C67.6181 30.152 67.4741 30.792 67.4741 31.544C67.4741 32.28 67.6181 32.92 67.9061 33.464C68.2101 33.992 68.6101 34.4 69.1061 34.688C69.6021 34.976 70.1621 35.12 70.7861 35.12ZM80.4686 38V25.088H84.0446V28.736L83.5406 27.68C83.9246 26.768 84.5406 26.08 85.3886 25.616C86.2366 25.136 87.2686 24.896 88.4846 24.896V28.352C88.3246 28.336 88.1806 28.328 88.0526 28.328C87.9246 28.312 87.7886 28.304 87.6446 28.304C86.6206 28.304 85.7886 28.6 85.1486 29.192C84.5246 29.768 84.2126 30.672 84.2126 31.904V38H80.4686ZM98.4662 38.192C97.3782 38.192 96.4262 37.952 95.6102 37.472C94.7942 36.992 94.1542 36.264 93.6902 35.288C93.2422 34.296 93.0182 33.048 93.0182 31.544C93.0182 30.024 93.2342 28.776 93.6662 27.8C94.0982 26.824 94.7222 26.096 95.5382 25.616C96.3542 25.136 97.3302 24.896 98.4662 24.896C99.6822 24.896 100.77 25.176 101.73 25.736C102.706 26.28 103.474 27.048 104.034 28.04C104.61 29.032 104.898 30.2 104.898 31.544C104.898 32.904 104.61 34.08 104.034 35.072C103.474 36.064 102.706 36.832 101.73 37.376C100.77 37.92 99.6822 38.192 98.4662 38.192ZM90.8342 42.656V25.088H94.4102V27.728L94.3382 31.568L94.5782 35.384V42.656H90.8342ZM97.8182 35.12C98.4422 35.12 98.9942 34.976 99.4742 34.688C99.9702 34.4 100.362 33.992 100.65 33.464C100.954 32.92 101.106 32.28 101.106 31.544C101.106 30.792 100.954 30.152 100.65 29.624C100.362 29.096 99.9702 28.688 99.4742 28.4C98.9942 28.112 98.4422 27.968 97.8182 27.968C97.1942 27.968 96.6342 28.112 96.1382 28.4C95.6422 28.688 95.2502 29.096 94.9622 29.624C94.6742 30.152 94.5302 30.792 94.5302 31.544C94.5302 32.28 94.6742 32.92 94.9622 33.464C95.2502 33.992 95.6422 34.4 96.1382 34.688C96.6342 34.976 97.1942 35.12 97.8182 35.12Z" fill="#252B42"/>
</svg>
